<?xml version="1.0" encoding="UTF-8"?>
<svg id="Camada_1" xmlns="http://www.w3.org/2000/svg" version="1.1" xmlns:xlink="http://www.w3.org/1999/xlink" viewBox="0 0 400 140">
  <!-- Generator: Adobe Illustrator 30.1.0, SVG Export Plug-In . SVG Version: 2.1.1 Build 136)  -->
  <defs>
    <style>
      .st0 {
        fill: #32b196;
      }

      .st1 {
        fill: #30b094;
      }

      .st2 {
        fill: url(#Gradiente_sem_nome_2);
      }

      .st3 {
        fill: url(#Gradiente_sem_nome);
      }

      .st4 {
        fill: url(#Gradiente_sem_nome_3);
      }

      .st5 {
        fill: #555050;
      }

      .st6 {
        fill: #2c3386;
      }
    </style>
    <linearGradient id="Gradiente_sem_nome" data-name="Gradiente sem nome" x1="39.32" y1="481.84" x2="6.11" y2="536.01" gradientTransform="translate(0 -453.28)" gradientUnits="userSpaceOnUse">
      <stop offset="0" stop-color="#27358a"/>
      <stop offset=".05" stop-color="#1f4597"/>
      <stop offset=".16" stop-color="#1160ad"/>
      <stop offset=".27" stop-color="#0874be"/>
      <stop offset=".38" stop-color="#0280c7"/>
      <stop offset=".49" stop-color="#0184cb"/>
      <stop offset=".58" stop-color="#0579c2"/>
      <stop offset=".74" stop-color="#135dab"/>
      <stop offset=".92" stop-color="#27358a"/>
    </linearGradient>
    <linearGradient id="Gradiente_sem_nome_2" data-name="Gradiente sem nome 2" x1="24.05" y1="544.64" x2="21.68" y2="522.97" gradientTransform="translate(0 -453.28)" gradientUnits="userSpaceOnUse">
      <stop offset="0" stop-color="#27358a"/>
      <stop offset=".31" stop-color="#0184cb"/>
      <stop offset="1" stop-color="#27358a"/>
    </linearGradient>
    <linearGradient id="Gradiente_sem_nome_3" data-name="Gradiente sem nome 3" x1="31.29" y1="505.87" x2="69.2" y2="496.4" gradientTransform="translate(0 -453.28)" gradientUnits="userSpaceOnUse">
      <stop offset="0" stop-color="#27358a"/>
      <stop offset=".62" stop-color="#0184cb"/>
      <stop offset="1" stop-color="#27358a"/>
    </linearGradient>
  </defs>
  <path class="st6" d="M387.55,46.36c-1.41-4.24-3.45-7.98-6.05-11.13-2.61-3.17-5.83-5.67-9.55-7.45s-7.9-2.69-12.41-2.69-8.69.92-12.42,2.74c-3.71,1.81-6.93,4.33-9.58,7.49-2.63,3.16-4.71,6.92-6.15,11.18-.9,2.67-1.52,5.49-1.87,8.39-2.15-1.81-4.7-3.2-7.61-4.13s-6.08-1.41-9.42-1.41-6.2.47-8.4,1.39c-1.45.61-2.82,1.27-4.07,1.98.81-4.19,2.59-7.46,5.31-9.72.39-.32.44-.9.12-1.28s-.9-.44-1.28-.12c-3.49,2.89-5.6,7.2-6.25,12.79l-.23,1.93,1.63-1.06c1.59-1.04,3.43-1.99,5.46-2.85,1.98-.82,4.58-1.25,7.71-1.25s6.14.44,8.86,1.33c2.7.87,5.07,2.16,7.04,3.84,1.96,1.66,3.53,3.78,4.66,6.28,1.13,2.52,1.71,5.47,1.71,8.77s-.62,6.24-1.85,8.91c-1.23,2.68-2.94,5.02-5.07,6.97-2.13,1.95-4.71,3.48-7.66,4.53-8.64,3.08-21.88,2.32-29.39-5.2-.36-.36-.93-.36-1.28,0-.36.36-.36.93,0,1.28,5.22,5.22,13,7.41,20.31,7.41,3.95,0,7.77-.64,10.98-1.79,3.17-1.13,5.96-2.78,8.27-4.9,2.29-2.09,4.12-4.6,5.45-7.45.11.19.23.38.35.57,3.7,5.77,10.33,9.19,17.64,9.19.63,0,1.26-.03,1.9-.08,6.79-.55,12.09-3.73,15.79-9.46,5.08-7.88,6.39-19.01,3.51-29.76-.71-2.66-1.74-5.01-3.04-6.96-1.33-1.99-2.97-3.57-4.86-4.7-1.92-1.15-4.1-1.73-6.45-1.73s-4.51.57-6.4,1.68c-1.87,1.1-3.49,2.65-4.81,4.61-1.31,1.93-2.32,4.26-3.01,6.93-.68,2.63-1.02,5.54-1.02,8.62s.36,5.99,1.07,8.62c.71,2.66,1.74,5.01,3.04,6.96,1.33,1.98,2.96,3.57,4.86,4.71,1.76,1.05,3.71,1.62,5.82,1.71.51.02.93-.37.95-.87s-.37-.93-.87-.95c-1.8-.08-3.47-.57-4.97-1.46-1.67-.99-3.11-2.4-4.28-4.16-1.2-1.79-2.14-3.96-2.8-6.43-.67-2.48-1.01-5.23-1.01-8.15s.32-5.67.96-8.16c.63-2.47,1.56-4.61,2.75-6.36,1.18-1.73,2.6-3.1,4.24-4.07,1.61-.95,3.45-1.43,5.48-1.43s3.88.5,5.52,1.47c1.67.99,3.11,2.39,4.28,4.16,1.19,1.79,2.14,3.96,2.8,6.42,2.75,10.27,1.53,20.85-3.28,28.3-3.37,5.23-8.22,8.13-14.4,8.63-7.36.6-14.21-2.58-17.86-8.28-.37-.57-.7-1.15-1.02-1.74.8-2.35,1.21-4.91,1.21-7.61,0-3.56-.63-6.76-1.87-9.52-.92-2.03-2.1-3.82-3.53-5.36.27-3.28.91-6.44,1.92-9.41,1.37-4.05,3.33-7.61,5.82-10.6,2.49-2.97,5.51-5.33,8.99-7.02,3.48-1.69,7.38-2.54,11.62-2.54s8.15.84,11.63,2.5,6.48,4.01,8.93,6.97c2.46,2.98,4.39,6.53,5.73,10.55,1.35,4.04,2.03,8.45,2.03,13.1s-.7,9.15-2.07,13.18c-1.37,4.02-3.34,7.58-5.83,10.55s-5.51,5.34-8.99,7.02c-3.73,1.81-7.5,2.69-11.52,2.69-2.15,0-4.09-.25-6.5-.84-.49-.12-.98.18-1.1.67s.18.98.67,1.1c2.56.62,4.64.89,6.93.89,4.31,0,8.34-.94,12.33-2.88,3.71-1.8,6.93-4.33,9.58-7.49,2.63-3.15,4.7-6.89,6.15-11.13,1.44-4.23,2.17-8.86,2.17-13.77s-.71-9.44-2.12-13.68h0l-.03.02h0Z"/>
  <path class="st6" d="M306.35,87.09c3.62,0,6.74-.7,9.34-2.1,5.71-3.07,8.39-10.58,5.85-16.4-2.54-5.83-8.66-7.72-13.61-7.01-4.34.63-9.25,3.53-10.03,9.8-.65,5.17,2.69,9.67,8.11,10.94.48.11.97-.19,1.1-.68.11-.49-.19-.98-.68-1.1-4.48-1.05-7.24-4.72-6.72-8.94.65-5.25,4.81-7.69,8.49-8.23,4.25-.62,9.52.98,11.68,5.94,2.17,4.98-.14,11.43-5.05,14.07-3.45,1.86-8.01,2.35-13.56,1.45-3.54-.57-8.51-2.06-12.11-5.91-3.83-4.09-5.68-10.31-5.08-17.06.65-7.37,4.01-13.98,8.97-17.69,5.77-4.31,14.06-5.69,22.74-3.78,3.84.85,6.6,2.61,9.81,4.67l1.51.97.39-1.05s1.13-3,2.66-5.83c1.4-2.59,3.8-5.86,3.82-5.89l.61-.82-.9-.51c-.49-.27-.97-.55-1.47-.82-2.78-1.58-5.66-3.22-8.79-4.27-3.34-1.11-7.09-1.71-10.86-1.71-5.02,0-9.47.97-13.23,2.88-3.75,1.91-6.9,4.57-9.36,7.91-1.64,2.23-3.02,4.75-4.08,7.49-.18.47.05.99.52,1.18s.99-.05,1.18-.52c1-2.59,2.3-4.96,3.85-7.06,2.29-3.11,5.23-5.59,8.73-7.36,3.51-1.78,7.68-2.69,12.41-2.69,3.57,0,7.13.56,10.29,1.61,2.97.99,5.76,2.59,8.47,4.13.2.11.39.23.59.34-.82,1.17-2.33,3.37-3.36,5.27-1.05,1.92-1.89,3.87-2.35,5.02-3.08-1.97-6.04-3.8-10.04-4.68-9.19-2.03-18.02-.53-24.21,4.1-5.37,4.01-8.99,11.11-9.7,18.98-.65,7.27,1.38,14,5.57,18.47,3.96,4.23,9.33,5.85,13.15,6.46,1.89.31,3.68.45,5.36.45h0v-.02h-.01Z"/>
  <path class="st6" d="M387.55,46.36c-1.41-4.24-3.45-7.98-6.05-11.13-2.61-3.17-5.83-5.67-9.55-7.45s-7.9-2.69-12.41-2.69-8.69.92-12.42,2.74c-3.71,1.81-6.93,4.33-9.58,7.49-2.63,3.16-4.71,6.92-6.15,11.18-.9,2.67-1.52,5.49-1.87,8.39-2.15-1.81-4.7-3.2-7.61-4.13s-6.08-1.41-9.42-1.41-6.2.47-8.4,1.39c-1.45.61-2.82,1.27-4.07,1.98.81-4.19,2.59-7.46,5.31-9.72.39-.32.44-.9.12-1.28s-.9-.44-1.28-.12c-3.49,2.89-5.6,7.2-6.25,12.79l-.23,1.93,1.63-1.06c1.59-1.04,3.43-1.99,5.46-2.85,1.98-.82,4.58-1.25,7.71-1.25s6.14.44,8.86,1.33c2.7.87,5.07,2.16,7.04,3.84,1.96,1.66,3.53,3.78,4.66,6.28,1.13,2.52,1.71,5.47,1.71,8.77s-.62,6.24-1.85,8.91c-1.23,2.68-2.94,5.02-5.07,6.97-2.13,1.95-4.71,3.48-7.66,4.53-8.64,3.08-21.88,2.32-29.39-5.2-.36-.36-.93-.36-1.28,0-.36.36-.36.93,0,1.28,5.22,5.22,13,7.41,20.31,7.41,3.95,0,7.77-.64,10.98-1.79,3.17-1.13,5.96-2.78,8.27-4.9,2.29-2.09,4.12-4.6,5.45-7.45.11.19.23.38.35.57,3.7,5.77,10.33,9.19,17.64,9.19.63,0,1.26-.03,1.9-.08,6.79-.55,12.09-3.73,15.79-9.46,5.08-7.88,6.39-19.01,3.51-29.76-.71-2.66-1.74-5.01-3.04-6.96-1.33-1.99-2.97-3.57-4.86-4.7-1.92-1.15-4.1-1.73-6.45-1.73s-4.51.57-6.4,1.68c-1.87,1.1-3.49,2.65-4.81,4.61-1.31,1.93-2.32,4.26-3.01,6.93-.68,2.63-1.02,5.54-1.02,8.62s.36,5.99,1.07,8.62c.71,2.66,1.74,5.01,3.04,6.96,1.33,1.98,2.96,3.57,4.86,4.71,1.76,1.05,3.71,1.62,5.82,1.71.51.02.93-.37.95-.87s-.37-.93-.87-.95c-1.8-.08-3.47-.57-4.97-1.46-1.67-.99-3.11-2.4-4.28-4.16-1.2-1.79-2.14-3.96-2.8-6.43-.67-2.48-1.01-5.23-1.01-8.15s.32-5.67.96-8.16c.63-2.47,1.56-4.61,2.75-6.36,1.18-1.73,2.6-3.1,4.24-4.07,1.61-.95,3.45-1.43,5.48-1.43s3.88.5,5.52,1.47c1.67.99,3.11,2.39,4.28,4.16,1.19,1.79,2.14,3.96,2.8,6.42,2.75,10.27,1.53,20.85-3.28,28.3-3.37,5.23-8.22,8.13-14.4,8.63-7.36.6-14.21-2.58-17.86-8.28-.37-.57-.7-1.15-1.02-1.74.8-2.35,1.21-4.91,1.21-7.61,0-3.56-.63-6.76-1.87-9.52-.92-2.03-2.1-3.82-3.53-5.36.27-3.28.91-6.44,1.92-9.41,1.37-4.05,3.33-7.61,5.82-10.6,2.49-2.97,5.51-5.33,8.99-7.02,3.48-1.69,7.38-2.54,11.62-2.54s8.15.84,11.63,2.5,6.48,4.01,8.93,6.97c2.46,2.98,4.39,6.53,5.73,10.55,1.35,4.04,2.03,8.45,2.03,13.1s-.7,9.15-2.07,13.18c-1.37,4.02-3.34,7.58-5.83,10.55s-5.51,5.34-8.99,7.02c-3.73,1.81-7.5,2.69-11.52,2.69-2.15,0-4.09-.25-6.5-.84-.49-.12-.98.18-1.1.67s.18.98.67,1.1c2.56.62,4.64.89,6.93.89,4.31,0,8.34-.94,12.33-2.88,3.71-1.8,6.93-4.33,9.58-7.49,2.63-3.15,4.7-6.89,6.15-11.13,1.44-4.23,2.17-8.86,2.17-13.77s-.71-9.44-2.12-13.68h0l-.03.02h0Z"/>
  <path class="st6" d="M306.35,87.09c3.62,0,6.74-.7,9.34-2.1,5.71-3.07,8.39-10.58,5.85-16.4-2.54-5.83-8.66-7.72-13.61-7.01-4.34.63-9.25,3.53-10.03,9.8-.65,5.17,2.69,9.67,8.11,10.94.48.11.97-.19,1.1-.68.11-.49-.19-.98-.68-1.1-4.48-1.05-7.24-4.72-6.72-8.94.65-5.25,4.81-7.69,8.49-8.23,4.25-.62,9.52.98,11.68,5.94,2.17,4.98-.14,11.43-5.05,14.07-3.45,1.86-8.01,2.35-13.56,1.45-3.54-.57-8.51-2.06-12.11-5.91-3.83-4.09-5.68-10.31-5.08-17.06.65-7.37,4.01-13.98,8.97-17.69,5.77-4.31,14.06-5.69,22.74-3.78,3.84.85,6.6,2.61,9.81,4.67l1.51.97.39-1.05s1.13-3,2.66-5.83c1.4-2.59,3.8-5.86,3.82-5.89l.61-.82-.9-.51c-.49-.27-.97-.55-1.47-.82-2.78-1.58-5.66-3.22-8.79-4.27-3.34-1.11-7.09-1.71-10.86-1.71-5.02,0-9.47.97-13.23,2.88-3.75,1.91-6.9,4.57-9.36,7.91-1.64,2.23-3.02,4.75-4.08,7.49-.18.47.05.99.52,1.18s.99-.05,1.18-.52c1-2.59,2.3-4.96,3.85-7.06,2.29-3.11,5.23-5.59,8.73-7.36,3.51-1.78,7.68-2.69,12.41-2.69,3.57,0,7.13.56,10.29,1.61,2.97.99,5.76,2.59,8.47,4.13.2.11.39.23.59.34-.82,1.17-2.33,3.37-3.36,5.27-1.05,1.92-1.89,3.87-2.35,5.02-3.08-1.97-6.04-3.8-10.04-4.68-9.19-2.03-18.02-.53-24.21,4.1-5.37,4.01-8.99,11.11-9.7,18.98-.65,7.27,1.38,14,5.57,18.47,3.96,4.23,9.33,5.85,13.15,6.46,1.89.31,3.68.45,5.36.45h0v-.02h-.01Z"/>
  <path class="st6" d="M387.55,46.36c-1.41-4.24-3.45-7.98-6.05-11.13-2.61-3.17-5.83-5.67-9.55-7.45s-7.9-2.69-12.41-2.69-8.69.92-12.42,2.74c-3.71,1.81-6.93,4.33-9.58,7.49-2.63,3.16-4.71,6.92-6.15,11.18-.9,2.67-1.52,5.49-1.87,8.39-2.15-1.81-4.7-3.2-7.61-4.13s-6.08-1.41-9.42-1.41-6.2.47-8.4,1.39c-1.45.61-2.82,1.27-4.07,1.98.81-4.19,2.59-7.46,5.31-9.72.39-.32.44-.9.12-1.28s-.9-.44-1.28-.12c-3.49,2.89-5.6,7.2-6.25,12.79l-.23,1.93,1.63-1.06c1.59-1.04,3.43-1.99,5.46-2.85,1.98-.82,4.58-1.25,7.71-1.25s6.14.44,8.86,1.33c2.7.87,5.07,2.16,7.04,3.84,1.96,1.66,3.53,3.78,4.66,6.28,1.13,2.52,1.71,5.47,1.71,8.77s-.62,6.24-1.85,8.91c-1.23,2.68-2.94,5.02-5.07,6.97-2.13,1.95-4.71,3.48-7.66,4.53-8.64,3.08-21.88,2.32-29.39-5.2-.36-.36-.93-.36-1.28,0-.36.36-.36.93,0,1.28,5.22,5.22,13,7.41,20.31,7.41,3.95,0,7.77-.64,10.98-1.79,3.17-1.13,5.96-2.78,8.27-4.9,2.29-2.09,4.12-4.6,5.45-7.45.11.19.23.38.35.57,3.7,5.77,10.33,9.19,17.64,9.19.63,0,1.26-.03,1.9-.08,6.79-.55,12.09-3.73,15.79-9.46,5.08-7.88,6.39-19.01,3.51-29.76-.71-2.66-1.74-5.01-3.04-6.96-1.33-1.99-2.97-3.57-4.86-4.7-1.92-1.15-4.1-1.73-6.45-1.73s-4.51.57-6.4,1.68c-1.87,1.1-3.49,2.65-4.81,4.61-1.31,1.93-2.32,4.26-3.01,6.93-.68,2.63-1.02,5.54-1.02,8.62s.36,5.99,1.07,8.62c.71,2.66,1.74,5.01,3.04,6.96,1.33,1.98,2.96,3.57,4.86,4.71,1.76,1.05,3.71,1.62,5.82,1.71.51.02.93-.37.95-.87s-.37-.93-.87-.95c-1.8-.08-3.47-.57-4.97-1.46-1.67-.99-3.11-2.4-4.28-4.16-1.2-1.79-2.14-3.96-2.8-6.43-.67-2.48-1.01-5.23-1.01-8.15s.32-5.67.96-8.16c.63-2.47,1.56-4.61,2.75-6.36,1.18-1.73,2.6-3.1,4.24-4.07,1.61-.95,3.45-1.43,5.48-1.43s3.88.5,5.52,1.47c1.67.99,3.11,2.39,4.28,4.16,1.19,1.79,2.14,3.96,2.8,6.42,2.75,10.27,1.53,20.85-3.28,28.3-3.37,5.23-8.22,8.13-14.4,8.63-7.36.6-14.21-2.58-17.86-8.28-.37-.57-.7-1.15-1.02-1.74.8-2.35,1.21-4.91,1.21-7.61,0-3.56-.63-6.76-1.87-9.52-.92-2.03-2.1-3.82-3.53-5.36.27-3.28.91-6.44,1.92-9.41,1.37-4.05,3.33-7.61,5.82-10.6,2.49-2.97,5.51-5.33,8.99-7.02,3.48-1.69,7.38-2.54,11.62-2.54s8.15.84,11.63,2.5,6.48,4.01,8.93,6.97c2.46,2.98,4.39,6.53,5.73,10.55,1.35,4.04,2.03,8.45,2.03,13.1s-.7,9.15-2.07,13.18c-1.37,4.02-3.34,7.58-5.83,10.55s-5.51,5.34-8.99,7.02c-3.73,1.81-7.5,2.69-11.52,2.69-2.15,0-4.09-.25-6.5-.84-.49-.12-.98.18-1.1.67s.18.98.67,1.1c2.56.62,4.64.89,6.93.89,4.31,0,8.34-.94,12.33-2.88,3.71-1.8,6.93-4.33,9.58-7.49,2.63-3.15,4.7-6.89,6.15-11.13,1.44-4.23,2.17-8.86,2.17-13.77s-.71-9.44-2.12-13.68h0l-.03.02h0Z"/>
  <path class="st6" d="M306.35,87.09c3.62,0,6.74-.7,9.34-2.1,5.71-3.07,8.39-10.58,5.85-16.4-2.54-5.83-8.66-7.72-13.61-7.01-4.34.63-9.25,3.53-10.03,9.8-.65,5.17,2.69,9.67,8.11,10.94.48.11.97-.19,1.1-.68.11-.49-.19-.98-.68-1.1-4.48-1.05-7.24-4.72-6.72-8.94.65-5.25,4.81-7.69,8.49-8.23,4.25-.62,9.52.98,11.68,5.94,2.17,4.98-.14,11.43-5.05,14.07-3.45,1.86-8.01,2.35-13.56,1.45-3.54-.57-8.51-2.06-12.11-5.91-3.83-4.09-5.68-10.31-5.08-17.06.65-7.37,4.01-13.98,8.97-17.69,5.77-4.31,14.06-5.69,22.74-3.78,3.84.85,6.6,2.61,9.81,4.67l1.51.97.39-1.05s1.13-3,2.66-5.83c1.4-2.59,3.8-5.86,3.82-5.89l.61-.82-.9-.51c-.49-.27-.97-.55-1.47-.82-2.78-1.58-5.66-3.22-8.79-4.27-3.34-1.11-7.09-1.71-10.86-1.71-5.02,0-9.47.97-13.23,2.88-3.75,1.91-6.9,4.57-9.36,7.91-1.64,2.23-3.02,4.75-4.08,7.49-.18.47.05.99.52,1.18s.99-.05,1.18-.52c1-2.59,2.3-4.96,3.85-7.06,2.29-3.11,5.23-5.59,8.73-7.36,3.51-1.78,7.68-2.69,12.41-2.69,3.57,0,7.13.56,10.29,1.61,2.97.99,5.76,2.59,8.47,4.13.2.11.39.23.59.34-.82,1.17-2.33,3.37-3.36,5.27-1.05,1.92-1.89,3.87-2.35,5.02-3.08-1.97-6.04-3.8-10.04-4.68-9.19-2.03-18.02-.53-24.21,4.1-5.37,4.01-8.99,11.11-9.7,18.98-.65,7.27,1.38,14,5.57,18.47,3.96,4.23,9.33,5.85,13.15,6.46,1.89.31,3.68.45,5.36.45h0v-.02h-.01Z"/>
  <path class="st6" d="M349.82,105.65c-.51.14-1,.33-1.49.55l-.46-1.27c.58-.27,1.16-.48,1.76-.64s1.27-.23,2.05-.23c1.43,0,2.53.36,3.29,1.06.77.71,1.16,1.76,1.16,3.15v6.39h-1.5v-1.58c-.37.47-.85.89-1.47,1.25-.61.37-1.39.55-2.32.55-.48,0-.96-.07-1.42-.2-.46-.14-.88-.34-1.25-.62s-.67-.62-.89-1.02-.34-.88-.34-1.44.11-1.04.32-1.47c.22-.43.53-.78.92-1.07.4-.28.87-.5,1.42-.65s1.15-.23,1.81-.23,1.26.04,1.76.12.98.19,1.46.32v-.37c0-.95-.27-1.65-.82-2.14s-1.31-.72-2.3-.72c-.62,0-1.19.07-1.69.21v.02h0v.03h0ZM349.32,109.95c-.53.39-.79.93-.79,1.6,0,.34.07.64.21.89s.34.48.57.66c.24.18.52.32.83.41s.65.14.99.14c.48,0,.94-.07,1.36-.21s.79-.34,1.11-.59.57-.55.75-.89.27-.72.27-1.14v-1.01c-.39-.11-.84-.21-1.34-.3-.51-.09-1.08-.14-1.72-.14-.98,0-1.74.2-2.26.59h.02Z"/>
  <path class="st6" d="M359.79,114.66h-1.56v-10.46h1.56v1.82c.35-.57.81-1.05,1.37-1.44.57-.4,1.3-.6,2.2-.6.63,0,1.2.1,1.69.3s.91.49,1.25.85c.34.37.61.82.79,1.33s.27,1.08.27,1.7v6.49h-1.56v-6.11c0-.97-.25-1.74-.75-2.31s-1.21-.85-2.15-.85c-.45,0-.86.08-1.25.23s-.71.38-1,.67c-.28.29-.51.64-.66,1.05s-.23.85-.23,1.34v5.99h.03Z"/>
  <path class="st6" d="M379.32,111.54c-.27.67-.66,1.25-1.14,1.75s-1.07.9-1.74,1.19-1.4.43-2.19.43-1.51-.15-2.17-.43-1.23-.68-1.72-1.17-.86-1.07-1.13-1.73c-.27-.66-.41-1.36-.41-2.1s.14-1.44.41-2.12c.27-.67.65-1.25,1.13-1.75s1.07-.9,1.73-1.19,1.39-.43,2.19-.43,1.51.15,2.17.43c.67.29,1.25.68,1.73,1.17s.86,1.07,1.13,1.73.41,1.36.41,2.1-.14,1.44-.41,2.12h.01,0ZM377.84,107.86c-.2-.5-.47-.93-.82-1.3s-.76-.66-1.23-.88-.98-.32-1.53-.32-1.09.11-1.56.31-.87.5-1.21.87-.59.8-.78,1.29-.28,1.02-.28,1.58.1,1.1.29,1.59.46.93.81,1.29c.34.37.75.65,1.23.87.47.22.98.32,1.53.32s1.09-.11,1.56-.31.88-.5,1.21-.85c.34-.37.6-.79.79-1.28s.28-1.02.28-1.58-.1-1.1-.29-1.59h0Z"/>
  <path class="st6" d="M388.22,113.05c-.2.39-.46.71-.79.98s-.72.48-1.17.62-.94.21-1.47.21c-.76,0-1.52-.14-2.29-.41s-1.45-.65-2.05-1.12l.79-1.11c.57.43,1.16.76,1.77.99.62.23,1.23.34,1.85.34s1.16-.15,1.56-.44c.41-.29.61-.7.61-1.21v-.04c0-.25-.07-.48-.21-.67s-.34-.36-.57-.5c-.25-.14-.53-.27-.84-.37s-.65-.21-.98-.3c-.41-.12-.82-.25-1.23-.39s-.79-.32-1.11-.54-.6-.48-.81-.81c-.21-.32-.31-.73-.31-1.21v-.04c0-.44.08-.85.26-1.23s.42-.69.74-.96.69-.46,1.13-.61c.44-.14.92-.21,1.42-.21.65,0,1.3.11,1.96.31s1.26.49,1.8.84l-.71,1.17c-.48-.31-.99-.55-1.53-.74-.53-.18-1.05-.27-1.57-.27-.62,0-1.11.15-1.48.43-.37.29-.55.65-.55,1.08v.04c0,.25.08.45.23.64s.35.34.6.48.53.26.85.37.66.22,1.01.32c.41.12.81.26,1.21.41s.76.34,1.08.57.58.51.78.82c.2.32.29.72.29,1.19v.04c0,.5-.1.94-.29,1.33h.02Z"/>
  <path class="st6" d="M270,94.13c-.27,0-.48-.22-.48-.48v-47.29c0-.27.22-.48.48-.48s.48.22.48.48v47.29c0,.27-.22.48-.48.48Z"/>
  <path class="st0" d="M63.46,53.72c-5.46-2.71-11.6-4.23-18.1-4.23-5.28,0-10.37.6-15.21,2.95,1.57-.66,3.29-1.02,5.1-1.02,7.28,0,13.17,5.9,13.17,13.17s-5.9,13.17-13.17,13.17-13.17-5.9-13.17-13.17c0,6.34,2.15,12.15,5.77,16.78,2.35-.64,4.83-.99,7.4-.99,7.42,0,14.14,2.89,19.16,7.59,6.76-5.55,11.09-13.96,11.09-23.38,0-3.83-.71-7.5-2.02-10.87,0,0-.02,0-.02,0Z"/>
  <path class="st3" d="M5.02,64.58c0,9.42,4.31,17.83,11.07,23.38.78-.74,1.62-1.43,2.48-2.07-.17-1.58-.27-3.18-.27-4.81,0-6.44,1.38-12.58,3.87-18.1.45-3.86,2.59-7.2,5.66-9.28,5.74-7.23,13.67-12.61,22.82-15.12-4.52-2.7-9.78-4.23-15.41-4.23-16.7,0-30.23,13.53-30.23,30.23h.02Z"/>
  <path class="st2" d="M22.08,64.58c0-.49,0-.96.09-1.6-2.48,5.49-3.89,11.7-3.87,18.1,0,1.63.09,3.23.27,4.81,2.74-2.05,5.9-3.61,9.28-4.53-3.62-4.63-5.77-10.46-5.77-16.78Z"/>
  <path class="st0" d="M24.05,92.67c3.47,1.38,7.24,2.15,11.2,2.15s7.73-.77,11.2-2.15c-3.15-2.26-7.03-3.59-11.2-3.59s-8.03,1.33-11.2,3.59"/>
  <path class="st4" d="M50.65,38.58c-8.95,2.46-16.76,7.57-22.82,15.12.75-.49,1.79-1.07,2.54-1.36,4.78-2.27,9.78-2.84,14.99-2.84,6.49,0,12.64,1.52,18.1,4.23-2.45-6.37-7.01-11.7-12.81-15.15Z"/>
  <path class="st1" d="M78.09,45.42h19.57c4.8,0,8.17,1.21,10.41,3.47,1.52,1.54,2.45,3.58,2.45,6.21v.11c0,4.45-2.51,7.09-5.88,8.58,4.63,1.54,7.57,4.17,7.57,9.39v.11c0,6.6-5.35,10.6-14.44,10.6h-19.68s0-38.47,0-38.47ZM95.04,60.76c3.21,0,5.02-1.1,5.02-3.36v-.11c0-2.09-1.63-3.29-4.8-3.29h-6.87v6.76s6.65,0,6.65,0ZM96.56,75.31c3.21,0,5.06-1.27,5.06-3.51v-.11c0-2.09-1.63-3.47-5.17-3.47h-8.06v7.09h8.17Z"/>
  <path class="st1" d="M125.65,45.42h10.19l16.25,38.47h-11.34l-2.78-6.82h-14.71l-2.73,6.82h-11.12l16.25-38.47h-.02ZM134.92,68.83l-4.25-10.85-4.31,10.85h8.56Z"/>
  <path class="st1" d="M151.01,45.42h18.03c5.83,0,9.86,1.54,12.42,4.17,2.23,2.2,3.37,5.16,3.37,8.95v.11c0,5.88-3.1,9.78-7.84,11.81l9.09,13.41h-12.22l-7.68-11.65h-4.63v11.65h-10.57v-38.47h0l.02.02ZM168.55,63.88c3.59,0,5.66-1.76,5.66-4.56v-.11c0-3.03-2.18-4.56-5.72-4.56h-6.92v9.24h6.98Z"/>
  <path class="st1" d="M198,45.42h10.19l16.25,38.47h-11.34l-2.78-6.82h-14.71l-2.73,6.82h-11.12l16.25-38.47h-.02ZM207.27,68.83l-4.25-10.85-4.31,10.85h8.56Z"/>
  <path class="st1" d="M219.01,64.75v-.11c0-10.73,8.64-19.41,20.17-19.41s20.06,8.59,20.06,19.32v.11c0,10.73-8.64,19.41-20.17,19.41s-20.06-8.59-20.06-19.32M248.67,64.75v-.11c0-5.39-3.89-10.08-9.6-10.08s-9.44,4.59-9.44,9.97v.11c0,5.39,3.89,10.08,9.55,10.08s9.5-4.59,9.5-9.97"/>
  <path class="st5" d="M116.68,89.8h5.43c4.91,0,8.3,3.37,8.3,7.76v.05c0,4.39-3.39,7.81-8.3,7.81h-5.43v-15.62ZM122.11,103.77c3.95,0,6.46-2.68,6.46-6.13v-.05c0-3.45-2.52-6.18-6.46-6.18h-3.65v12.36s3.65,0,3.65,0Z"/>
  <polygon class="st5" points="133.68 89.8 144.97 89.8 144.97 91.4 135.43 91.4 135.43 96.73 143.96 96.73 143.96 98.33 135.43 98.33 135.43 103.8 145.08 103.8 145.08 105.4 133.68 105.4 133.68 89.8"/>
  <polygon class="st5" points="154.42 89.8 156.21 89.8 161.89 98.31 167.58 89.8 169.37 89.8 169.37 105.4 167.6 105.4 167.6 92.76 161.92 101.12 161.83 101.12 156.13 92.78 156.13 105.4 154.42 105.4 154.42 89.8"/>
  <path class="st5" d="M179.11,89.69h1.65l7.12,15.73h-1.9l-1.83-4.12h-8.5l-1.85,4.12h-1.8l7.12-15.73ZM183.46,99.69l-3.54-7.97-3.58,7.97h7.12Z"/>
  <path class="st5" d="M189.71,98.88v-9.08h1.76v8.97c0,3.37,1.79,5.27,4.77,5.27s4.7-1.74,4.7-5.16v-9.08h1.76v8.94c0,4.55-2.6,6.92-6.51,6.92s-6.49-2.37-6.49-6.77"/>
  <path class="st5" d="M211.66,89.69h1.65l7.12,15.73h-1.9l-1.83-4.12h-8.5l-1.85,4.12h-1.8l7.12-15.73ZM216,99.69l-3.54-7.97-3.58,7.97h7.12ZM214,85.31l1.76.8-2.57,2.07h-1.43l2.23-2.87h.02Z"/>
  <path class="st1" d="M191.9,38.71c3.47,1.38,7.24,2.15,11.2,2.15s7.73-.77,11.2-2.15c-3.15-2.26-7.03-3.59-11.2-3.59s-8.04,1.33-11.2,3.59"/>
</svg>